<?xml version="1.0" standalone="no"?><!DOCTYPE svg PUBLIC "-//W3C//DTD SVG 1.1//EN" "http://www.w3.org/Graphics/SVG/1.1/DTD/svg11.dtd"><svg t="1725262792359" class="icon" viewBox="0 0 1024 1024" version="1.1" xmlns="http://www.w3.org/2000/svg" p-id="5987" xmlns:xlink="http://www.w3.org/1999/xlink" width="200" height="200"><path d="M669.86496 916.48H354.13504C218.496 916.48 107.52 805.504 107.52 669.86496V354.13504C107.52 218.496 218.496 107.52 354.13504 107.52h315.73504C805.504 107.52 916.48 218.496 916.48 354.13504v315.73504C916.48 805.504 805.504 916.48 669.86496 916.48z" fill="#999999" opacity=".3" p-id="5988"></path><path d="M650.68032 477.33248h-104.00768V373.31968a34.67264 34.67264 0 0 0-69.33504 0v104.00768H373.31968a34.66752 34.66752 0 0 0 0 69.33504h104.00768v104.00768a34.67264 34.67264 0 0 0 69.33504 0V546.6624h104.00768a34.66752 34.66752 0 0 0 0.01024-69.32992z" fill="#999999" p-id="5989"></path></svg>